# xmcd
#
# Track frame offsets: 
#        150
#        18411
#        33624
#        47318
#        64563
#        84486
#        99270
#        115789
#        132449
#        146550
#        159350
#
# Disc length: 2310 seconds
#
# Revision: 0
# Processed by: cddbd v1.5.2PL0 Copyright (c) Steve Scherf et al.
# Submitted via: ExactAudioCopy v1.3
#
DISCID=8309040b
DTITLE=Michael Buble - Love
DYEAR=1900
DGENRE=Blues
TTITLE0=When I Fall In Love
TTITLE1=I Only Have Eyes for You
TTITLE2=Love You Anymore
TTITLE3=Michael Buble feat. Cecile McLorin Salvant - La vie en rose
TTITLE4=My Funny Valentine
TTITLE5=Such a Night
TTITLE6=Forever Now
TTITLE7=Michael Buble feat. Loren Allred - Help Me Make It Through the
TTITLE7=Night
TTITLE8=Unforgettable
TTITLE9=When You're Smiling
TTITLE10=Where or When
EXTD=
EXTT0=
EXTT1=
EXTT2=
EXTT3=
EXTT4=
EXTT5=
EXTT6=
EXTT7=
EXTT8=
EXTT9=
EXTT10=
PLAYORDER=
